# xmcd
#
# Track frame offsets: 
#        150
#        2045
#        22817
#        40785
#        60566
#        79781
#        103409
#        117782
#        134214
#        156011
#        174451
#        192385
#
# Disc length: 2953 seconds
#
# Revision: 0
# Processed by: cddbd v1.5.2PL0 Copyright (c) Steve Scherf et al.
# Submitted via: ExactAudioCopy v0.99pb5
#
DISCID=990b870c
DTITLE=The Ivas John Band - Live From St. Louis [At The Big Muddy Blue
DTITLE=s Festival 2009]
DYEAR=2009
DGENRE=Blues
TTITLE0=Introduction
TTITLE1=Stranger Blues
TTITLE2=Better Off With The Blues
TTITLE3=Whiskey Drinkin Mama
TTITLE4=Don't Do It
TTITLE5=Crazy Country Woman
TTITLE6=Lucille Lucille
TTITLE7=Blues Stay Away From Me
TTITLE8=Play On Lil' Girl
TTITLE9=Neighbor Neighbor
TTITLE10=Blue Light Boogie
TTITLE11=Cruel To Me
EXTD=
EXTT0=
EXTT1=
EXTT2=
EXTT3=
EXTT4=
EXTT5=
EXTT6=
EXTT7=
EXTT8=
EXTT9=
EXTT10=
EXTT11=
PLAYORDER=
